#!OML:ASF X:\für Bonn\!DataBase\2005_08_11_Bastian_Final\c3d\Bastian.ASF
:FULLY-SPECIFIED
:DEGREES
33
root -0.0653468 17.026 6.57767 170.695 -8.34311 -178.476
lowerback 8.99837 -2.86152 -2.50386
upperback 5.02442 -4.44635 -0.490527
thorax 0.319684 -2.45872 1.26661
lowerneck -5.88574 -6.48102 -3.92021
upperneck -4.33396 -7.89327 10.3118
head 0.27421 -3.67773 3.83966
rclavicle 3.04638e-014 -1.78906e-014
rhumerus 70.7642 21.4228 -5.71789
rradius 39.8616
rwrist -50.7348
rhand -42.7501 -5.83405
rfingers 7.12502
rthumb -15.6177 -35.2236
lclavicle 3.04638e-014 -1.78906e-014
lhumerus 68.6998 -20.1004 -5.92068
lradius 29.7284
lwrist 4.778
lhand -41.9519 11.7505
lfingers 7.12502
lthumb -14.8488 41.1984
rfemur -7.23387 -5.79145 24.8587
rtibia 44.4681
rfoot -23.0415 -12.7041
rtoes 0.930009
lfemur -5.99106 -0.307592 -18.1754
ltibia 38.5926
lfoot -16.0426 -8.16277
ltoes -10.3341
34
root -0.0643264 16.9847 6.60229 170.63 -8.33526 -178.49
lowerback 9.51648 -2.84757 -2.42998
upperback 5.01654 -4.44999 -0.496794
thorax 0.0221058 -2.46063 1.25451
lowerneck -5.77911 -6.51279 -4.00826
upperneck -4.55459 -7.90873 10.3707
head 0.192711 -3.68803 3.88364
rclavicle 7.90169e-015 -1.78906e-014
rhumerus 70.8076 21.2726 -5.56993
rradius 39.9253
rwrist -50.566
rhand -42.8425 -5.8312
rfingers 7.12502
rthumb -15.7067 -35.2138
lclavicle 7.90169e-015 -1.78906e-014
lhumerus 68.4085 -19.9113 -5.25938
lradius 29.7702
lwrist 4.32348
lhand -41.979 11.608
lfingers 7.12502
lthumb -14.8749 41.054
rfemur -7.74111 -6.60943 24.63
rtibia 45.3253
rfoot -23.2914 -11.9841
rtoes 0.643335
lfemur -6.55701 -0.303072 -18.1992
ltibia 39.6242
lfoot -16.4899 -8.22933
ltoes -10.1515
35
root -0.063937 16.9385 6.62723 170.56 -8.31898 -178.485
lowerback 10.049 -2.82957 -2.29549
upperback 4.99617 -4.44189 -0.530377
thorax -0.302919 -2.45442 1.18121
lowerneck -5.65805 -6.55163 -4.07491
upperneck -4.75394 -7.93542 10.4653
head 0.117206 -3.70356 3.93598
rclavicle -1.2275e-014 8.34896e-015
rhumerus 70.8011 21.1211 -5.47478
rradius 39.9781
rwrist -50.4223
rhand -42.9151 -5.83416
rfingers 7.12502
rthumb -15.7766 -35.2112
lclavicle -1.2275e-014 8.34896e-015
lhumerus 68.168 -19.7359 -4.73312
lradius 29.8547
lwrist 3.96064
lhand -41.9638 11.4842
lfingers 7.12502
lthumb -14.8603 40.9313
rfemur -8.28042 -7.35915 24.4364
rtibia 46.2549
rfoot -23.602 -11.3033
rtoes 0.486917
lfemur -7.15706 -0.288168 -18.1956
ltibia 40.734
lfoot -16.9367 -8.3587
ltoes -9.57136
36
root -0.0636141 16.8876 6.65237 170.519 -8.3194 -178.498
lowerback 10.5539 -2.82332 -2.18746
upperback 4.97795 -4.4493 -0.556468
thorax -0.606863 -2.45689 1.12965
lowerneck -5.5483 -6.58827 -4.16314
upperneck -4.97319 -7.95615 10.5492
head 0.0372125 -3.71575 3.98921
rclavicle 9.98893e-015 1.23246e-014
rhumerus 70.8481 20.9287 -5.24584
rradius 40.0509
rwrist -50.4058
rhand -43.0298 -5.80971
rfingers 7.12502
rthumb -15.8871 -35.178
lclavicle 9.98893e-015 1.23246e-014
lhumerus 67.9656 -19.5348 -4.43495
lradius 29.9597
lwrist 3.8003
lhand -41.9524 11.3962
lfingers 7.12502
lthumb -14.8493 40.844
rfemur -8.88582 -8.09581 24.2336
rtibia 47.2584
rfoot -23.9372 -10.651
rtoes 0.424162
lfemur -7.83128 -0.252418 -18.2135
ltibia 41.9227
lfoot -17.4486 -8.47967
ltoes -9.41399
37
root -0.0633099 16.8321 6.67754 170.466 -8.30097 -178.495
lowerback 11.0647 -2.81171 -2.06116
upperback 4.97362 -4.44894 -0.588956
thorax -0.901171 -2.45651 1.0603
lowerneck -5.4935 -6.62337 -4.1892
upperneck -5.1832 -7.97502 10.6127
head -0.034284 -3.72515 4.02182
rclavicle 1.36167e-014 1.98785e-014
rhumerus 70.8807 20.6908 -5.0494
rradius 40.1289
rwrist -50.4131
rhand -43.1025 -5.72841
rfingers 7.12502
rthumb -15.9571 -35.0911
lclavicle 1.36167e-014 1.98785e-014
lhumerus 67.7806 -19.2968 -4.25549
lradius 30.0924
lwrist 3.73611
lhand -41.8568 11.3626
lfingers 7.12502
lthumb -14.7572 40.8173
rfemur -9.51374 -8.77222 24.071
rtibia 48.3268
rfoot -24.3047 -10.0757
rtoes 0.234943
lfemur -8.52608 -0.215057 -18.2081
ltibia 43.184
lfoot -17.9994 -8.6289
ltoes -9.03991
38
root -0.0631768 16.7715 6.70159 170.445 -8.30083 -178.493
lowerback 11.5489 -2.81016 -1.94786
upperback 4.94292 -4.4569 -0.597536
thorax -1.20467 -2.45877 1.02297
lowerneck -5.43237 -6.66062 -4.29589
upperneck -5.36515 -7.99836 10.6939
head -0.092892 -3.73643 4.07561
rclavicle -5.82439e-014 5.1684e-015
rhumerus 70.9271 20.4328 -4.80364
rradius 40.2078
rwrist -50.4845
rhand -43.1536 -5.6626
rfingers 7.12502
rthumb -16.0062 -35.0214
lclavicle -5.82439e-014 5.1684e-015
lhumerus 67.6221 -19.0976 -4.20293
lradius 30.2413
lwrist 3.82444
lhand -41.7789 11.353
lfingers 7.12502
lthumb -14.6822 40.8132
rfemur -10.1958 -9.40615 23.9223
rtibia 49.4629
rfoot -24.7546 -9.53472
rtoes 0.0562846
lfemur -9.29326 -0.175335 -18.208
ltibia 44.5227
lfoot -18.6045 -8.79889
ltoes -8.73121
39
root -0.0632533 16.7054 6.72567 170.414 -8.3012 -178.508
lowerback 12.0211 -2.80042 -1.8273
upperback 4.9429 -4.45621 -0.637259
thorax -1.47262 -2.45895 0.946314
lowerneck -5.42168 -6.70587 -4.31595
upperneck -5.55949 -8.03128 10.7388
head -0.151751 -3.75113 4.09846
rclavicle -1.31695e-014 -2.98177e-014
rhumerus 70.9847 20.0694 -4.40735
rradius 40.3203
rwrist -50.7023
rhand -43.1493 -5.63194
rfingers 7.12502
rthumb -16.0022 -34.991
lclavicle -1.31695e-014 -2.98177e-014
lhumerus 67.4882 -18.8438 -4.21245
lradius 30.4144
lwrist 3.89001
lhand -41.68 11.3909
lfingers 7.12502
lthumb -14.5868 40.858
rfemur -10.8941 -9.98932 23.7735
rtibia 50.6556
rfoot -25.2014 -9.07133
rtoes -0.0183562
lfemur -10.0808 -0.150629 -18.2262
ltibia 45.9364
lfoot -19.2803 -8.97073
ltoes -8.66062
40
root -0.0634889 16.6339 6.74874 170.404 -8.31044 -178.505
lowerback 12.4655 -2.79816 -1.70706
upperback 4.93525 -4.46133 -0.653409
thorax -1.73095 -2.46172 0.893234
lowerneck -5.4582 -6.75292 -4.38872
upperneck -5.70589 -8.06812 10.803
head -0.183126 -3.76516 4.13531
rclavicle 1.55549e-014 2.14687e-014
rhumerus 71.0568 19.6719 -4.00172
rradius 40.4297
rwrist -50.9423
rhand -43.1594 -5.59554
rfingers 7.12502
rthumb -16.0119 -34.9539
lclavicle 1.55549e-014 2.14687e-014
lhumerus 67.3572 -18.5924 -4.27524
lradius 30.5885
lwrist 4.07337
lhand -41.6096 11.4206
lfingers 7.12502
lthumb -14.519 40.8926
rfemur -11.6485 -10.5355 23.6621
rtibia 51.9155
rfoot -25.6967 -8.66694
rtoes -0.238042
lfemur -10.9302 -0.112662 -18.2222
ltibia 47.4225
lfoot -20.0012 -9.20817
ltoes -8.51558
41
root -0.0635967 16.556 6.7705 170.392 -8.29964 -178.483
lowerback 12.8714 -2.79714 -1.56074
upperback 4.95306 -4.46532 -0.668948
thorax -1.9434 -2.46571 0.822443
lowerneck -5.50963 -6.80665 -4.46279
upperneck -5.87198 -8.11006 10.8696
head -0.217648 -3.78073 4.17303
rclavicle -5.32743e-014 4.37326e-015
rhumerus 71.1537 19.194 -3.50386
rradius 40.5636
rwrist -51.278
rhand -43.1275 -5.59205
rfingers 7.12502
rthumb -15.9811 -34.9528
lclavicle -5.32743e-014 4.37326e-015
lhumerus 67.2388 -18.32 -4.4401
lradius 30.7673
lwrist 4.32362
lhand -41.5696 11.5095
lfingers 7.12502
lthumb -14.4805 40.9842
rfemur -12.4165 -10.9554 23.6024
rtibia 53.2233
rfoot -26.2296 -8.30984
rtoes -0.161199
lfemur -11.802 -0.0431234 -18.1922
ltibia 48.9792
lfoot -20.7422 -9.4157
ltoes -8.44859
42
root -0.0644148 16.4728 6.79025 170.383 -8.30869 -178.481
lowerback 13.2591 -2.79544 -1.43977
upperback 4.97098 -4.4697 -0.685917
thorax -2.14379 -2.47028 0.763054
lowerneck -5.53721 -6.85839 -4.52993
upperneck -6.05158 -8.14894 10.9307
head -0.26157 -3.79574 4.20889
rclavicle -4.08999e-014 -1.11319e-014
rhumerus 71.2247 18.7021 -2.9663
rradius 40.7193
rwrist -51.6236
rhand -43.0928 -5.65248
rfingers 7.12502
rthumb -15.9478 -35.0159
lclavicle -4.08999e-014 -1.11319e-014
lhumerus 67.1037 -18.0399 -4.49692
lradius 30.9291
lwrist 4.43993
lhand -41.5524 11.634
lfingers 7.12502
lthumb -14.4639 41.1099
rfemur -13.2056 -11.3481 23.5325
rtibia 54.5916
rfoot -26.8053 -8.05146
rtoes -0.352425
lfemur -12.6969 -0.0239628 -18.1938
ltibia 50.5903
lfoot -21.4681 -9.61372
ltoes -8.06613
43
root -0.064979 16.385 6.80785 170.367 -8.3037 -178.457
lowerback 13.6064 -2.79332 -1.29456
upperback 5.01616 -4.47144 -0.706505
thorax -2.29566 -2.47541 0.682163
lowerneck -5.60953 -6.90511 -4.56675
upperneck -6.22104 -8.17946 10.9933
head -0.296398 -3.80454 4.23803
rclavicle 1.07344e-014 7.55382e-015
rhumerus 71.3083 18.1923 -2.50546
rradius 40.7993
rwrist -51.89
rhand -43.0418 -5.70067
rfingers 7.12502
rthumb -15.8986 -35.068
lclavicle 1.07344e-014 7.55382e-015
lhumerus 66.9702 -17.7099 -4.52904
lradius 31.067
lwrist 4.50342
lhand -41.5642 11.7902
lfingers 7.12502
lthumb -14.4753 41.2653
rfemur -13.997 -11.6674 23.5079
rtibia 55.9952
rfoot -27.3818 -7.86041
rtoes -0.405013
lfemur -13.6056 0.0323277 -18.1603
ltibia 52.2519
lfoot -22.2032 -9.83039
ltoes -7.73223
44
root -0.0654198 16.2919 6.8235 170.362 -8.30572 -178.457
lowerback 13.9467 -2.79079 -1.18543
upperback 5.03885 -4.47316 -0.721728
thorax -2.46383 -2.4793 0.627295
lowerneck -5.61231 -6.95822 -4.65024
upperneck -6.40277 -8.21992 11.064
head -0.343987 -3.82085 4.2815
rclavicle 2.25621e-014 5.1684e-015
rhumerus 71.3865 17.7123 -2.05611
rradius 40.8788
rwrist -52.1497
rhand -43.0002 -5.76756
rfingers 7.12502
rthumb -15.8586 -35.1381
lclavicle 2.25621e-014 5.1684e-015
lhumerus 66.8032 -17.4119 -4.42447
lradius 31.1699
lwrist 4.45804
lhand -41.6226 11.8846
lfingers 7.12502
lthumb -14.5315 41.3556
rfemur -14.8031 -11.9912 23.4655
rtibia 57.4376
rfoot -28.0027 -7.67899
rtoes -0.507453
lfemur -14.524 0.0698505 -18.1558
ltibia 53.9386
lfoot -22.9432 -10.0421
ltoes -7.0551
45
root -0.0664264 16.195 6.83677 170.38 -8.3135 -178.439
lowerback 14.2268 -2.79376 -1.04161
upperback 5.06976 -4.47555 -0.749775
thorax -2.59442 -2.48353 0.535563
lowerneck -5.61714 -7.00684 -4.64908
upperneck -6.60616 -8.25418 11.1009
head -0.404473 -3.83492 4.29775
rclavicle 3.95085e-014 -5.96354e-015
rhumerus 71.42 17.2513 -1.68595
rradius 40.944
rwrist -52.3568
rhand -42.9784 -5.80543
rfingers 7.12502
rthumb -15.8375 -35.1777
lclavicle 3.95085e-014 -5.96354e-015
lhumerus 66.6263 -17.0701 -4.10759
lradius 31.2131
lwrist 4.17603
lhand -41.662 11.9875
lfingers 7.12502
lthumb -14.5695 41.4558
rfemur -15.6461 -12.2883 23.4501
rtibia 58.9038
rfoot -28.6397 -7.52792
rtoes -0.53204
lfemur -15.4756 0.101255 -18.1339
ltibia 55.6478
lfoot -23.6651 -10.2631
ltoes -6.42962
46
root -0.0670957 16.0963 6.85026 170.36 -8.32053 -178.414
lowerback 14.5536 -2.80132 -0.904943
upperback 5.10716 -4.48683 -0.764864
thorax -2.74123 -2.49337 0.465402
lowerneck -5.61535 -7.05577 -4.71395
upperneck -6.80182 -8.28646 11.1773
head -0.458711 -3.84698 4.34087
rclavicle 6.24681e-014 1.59028e-015
rhumerus 71.4631 16.812 -1.44874
rradius 40.971
rwrist -52.4492
rhand -42.9428 -5.84513
rfingers 7.12502
rthumb -15.8033 -35.2201
lclavicle 6.24681e-014 1.59028e-015
lhumerus 66.4114 -16.7152 -3.72099
lradius 31.247
lwrist 3.86651
lhand -41.7292 12.057
lfingers 7.12502
lthumb -14.6342 41.5206
rfemur -16.4487 -12.558 23.445
rtibia 60.3855
rfoot -29.2853 -7.38461
rtoes -0.625819
lfemur -16.3884 0.126253 -18.1025
ltibia 57.3687
lfoot -24.42 -10.4804
ltoes -5.87283
